<svg xmlns="http://www.w3.org/2000/svg" viewBox="0 0 1200 600" font-family="-apple-system, sans-serif" font-size="12"><rect width="1200" height="600" fill="#ffffff"/><text x="600" y="28" text-anchor="middle" font-size="16" font-weight="600" fill="#212121">Сводка сравнения двух интеллектуальных систем</text><rect x="60" y="80" width="480" height="460" fill="#fafafa"/><line x1="60" y1="540" x2="540" y2="80" stroke="#9e9e9e" stroke-width="1.5" stroke-dasharray="5,4"/><text x="516" y="99" font-size="10" fill="#757575">y = x (полное совпадение)</text><line x1="219.98399999999998" y1="80" x2="219.98399999999998" y2="540" stroke="#bdbdbd" stroke-width="1" stroke-dasharray="2,3"/><line x1="60" y1="386.682" x2="540" y2="386.682" stroke="#bdbdbd" stroke-width="1" stroke-dasharray="2,3"/><line x1="379.96799999999996" y1="80" x2="379.96799999999996" y2="540" stroke="#bdbdbd" stroke-width="1" stroke-dasharray="2,3"/><line x1="60" y1="233.36400000000003" x2="540" y2="233.36400000000003" stroke="#bdbdbd" stroke-width="1" stroke-dasharray="2,3"/><text x="60" y="556" text-anchor="middle" fill="#616161" font-size="10">0</text><text x="52" y="544" text-anchor="end" fill="#616161" font-size="10">0</text><text x="180" y="556" text-anchor="middle" fill="#616161" font-size="10">25</text><text x="52" y="429" text-anchor="end" fill="#616161" font-size="10">25</text><text x="300" y="556" text-anchor="middle" fill="#616161" font-size="10">50</text><text x="52" y="314" text-anchor="end" fill="#616161" font-size="10">50</text><text x="420" y="556" text-anchor="middle" fill="#616161" font-size="10">75</text><text x="52" y="199" text-anchor="end" fill="#616161" font-size="10">75</text><text x="540" y="556" text-anchor="middle" fill="#616161" font-size="10">100</text><text x="52" y="84" text-anchor="end" fill="#616161" font-size="10">100</text><line x1="60" y1="80" x2="60" y2="540" stroke="#424242" stroke-width="1.5"/><line x1="60" y1="540" x2="540" y2="540" stroke="#424242" stroke-width="1.5"/><text x="300" y="575" text-anchor="middle" font-weight="600" fill="#424242">оценка fuzzy</text><text x="22" y="310" text-anchor="middle" transform="rotate(-90 22,310)" font-weight="600" fill="#424242">оценка multiop</text><text x="300" y="50" text-anchor="middle" font-size="13" font-weight="600" fill="#212121">Соотношение оценок (когда обе системы работают)</text><text x="300" y="66" text-anchor="middle" font-size="11" fill="#616161">15 кейсов на диаграмме</text><circle cx="452.91333333333336" cy="163.45805555555557" r="6" fill="#1976d2" fill-opacity="0.6" stroke="#0d47a1" stroke-width="1.2"/><text x="452.91333333333336" y="155.45805555555557" text-anchor="middle" font-size="9" fill="#0d47a1" font-weight="600">1</text><circle cx="122.01666666666667" cy="480.5673611111111" r="6" fill="#1976d2" fill-opacity="0.6" stroke="#0d47a1" stroke-width="1.2"/><text x="122.01666666666667" y="472.5673611111111" text-anchor="middle" font-size="9" fill="#0d47a1" font-weight="600">2</text><circle cx="312.08000000000004" cy="298.4233333333333" r="6" fill="#1976d2" fill-opacity="0.6" stroke="#0d47a1" stroke-width="1.2"/><text x="312.08000000000004" y="290.4233333333333" text-anchor="middle" font-size="9" fill="#0d47a1" font-weight="600">3</text><circle cx="422.8133333333334" cy="192.30388888888882" r="6" fill="#1976d2" fill-opacity="0.6" stroke="#0d47a1" stroke-width="1.2"/><text x="422.8133333333334" y="184.30388888888882" text-anchor="middle" font-size="9" fill="#0d47a1" font-weight="600">4</text><circle cx="108.06666666666666" cy="493.93611111111113" r="6" fill="#1976d2" fill-opacity="0.6" stroke="#0d47a1" stroke-width="1.2"/><text x="108.06666666666666" y="485.93611111111113" text-anchor="middle" font-size="9" fill="#0d47a1" font-weight="600">5</text><circle cx="394.2133333333333" cy="219.71222222222224" r="6" fill="#1976d2" fill-opacity="0.6" stroke="#0d47a1" stroke-width="1.2"/><text x="394.2133333333333" y="211.71222222222224" text-anchor="middle" font-size="9" fill="#0d47a1" font-weight="600">6</text><circle cx="258.0333333333333" cy="385.6641435185185" r="6" fill="#1976d2" fill-opacity="0.6" stroke="#0d47a1" stroke-width="1.2"/><text x="258.0333333333333" y="377.6641435185185" text-anchor="middle" font-size="9" fill="#0d47a1" font-weight="600">8</text><circle cx="368.47666666666663" cy="244.0150231481482" r="6" fill="#1976d2" fill-opacity="0.6" stroke="#0d47a1" stroke-width="1.2"/><text x="368.47666666666663" y="236.0150231481482" text-anchor="middle" font-size="9" fill="#0d47a1" font-weight="600">9</text><circle cx="366.65000000000003" cy="256.68738425925926" r="6" fill="#1976d2" fill-opacity="0.6" stroke="#0d47a1" stroke-width="1.2"/><text x="366.65000000000003" y="248.68738425925926" text-anchor="middle" font-size="9" fill="#0d47a1" font-weight="600">11</text><circle cx="308" cy="301.4814814814814" r="6" fill="#1976d2" fill-opacity="0.6" stroke="#0d47a1" stroke-width="1.2"/><text x="308" y="293.4814814814814" text-anchor="middle" font-size="9" fill="#0d47a1" font-weight="600">12</text><circle cx="348.25" cy="263.7604166666667" r="6" fill="#1976d2" fill-opacity="0.6" stroke="#0d47a1" stroke-width="1.2"/><text x="348.25" y="255.76041666666669" text-anchor="middle" font-size="9" fill="#0d47a1" font-weight="600">13</text><circle cx="370.3033333333333" cy="328.563449074074" r="6" fill="#1976d2" fill-opacity="0.6" stroke="#0d47a1" stroke-width="1.2"/><text x="370.3033333333333" y="320.563449074074" text-anchor="middle" font-size="9" fill="#0d47a1" font-weight="600">17</text><circle cx="374.87" cy="238.78039351851845" r="6" fill="#1976d2" fill-opacity="0.6" stroke="#0d47a1" stroke-width="1.2"/><text x="374.87" y="230.78039351851845" text-anchor="middle" font-size="9" fill="#0d47a1" font-weight="600">18</text><circle cx="308" cy="301.4814814814814" r="6" fill="#1976d2" fill-opacity="0.6" stroke="#0d47a1" stroke-width="1.2"/><text x="308" y="293.4814814814814" text-anchor="middle" font-size="9" fill="#0d47a1" font-weight="600">22</text><circle cx="372.13" cy="273.21118055555553" r="6" fill="#1976d2" fill-opacity="0.6" stroke="#0d47a1" stroke-width="1.2"/><text x="372.13" y="265.21118055555553" text-anchor="middle" font-size="9" fill="#0d47a1" font-weight="600">24</text><text x="660" y="66" text-anchor="middle" font-size="13" font-weight="600" fill="#212121">Покрытие данных</text><text x="660" y="84" text-anchor="middle" font-size="11" fill="#616161">сколько кейсов получили оценку</text><circle cx="660" cy="220" r="80" fill="#e3f2fd" stroke="#bdbdbd"/><path d="M 660 220 L 660 140 A 80 80 0 1 1 612.9771798166022 284.7213595499958 Z" fill="#1976d2" fill-opacity="0.85"/><circle cx="660" cy="220" r="50" fill="#ffffff"/><text x="660" y="216" text-anchor="middle" font-size="18" font-weight="700" fill="#1976d2">15/25</text><text x="660" y="234" text-anchor="middle" font-size="11" fill="#616161">fuzzy</text><text x="660" y="318" text-anchor="middle" font-size="11" fill="#212121">60%</text><circle cx="660" cy="470" r="80" fill="#fff3e0" stroke="#bdbdbd"/><path d="M 660 470 L 660 390 A 80 80 0 1 1 660 390 Z" fill="#f57c00" fill-opacity="0.85"/><circle cx="660" cy="470" r="50" fill="#ffffff"/><text x="660" y="466" text-anchor="middle" font-size="18" font-weight="700" fill="#f57c00">25/25</text><text x="660" y="484" text-anchor="middle" font-size="11" fill="#616161">multiop</text><text x="660" y="568" text-anchor="middle" font-size="11" fill="#212121">100%</text><text x="790" y="66" font-size="13" font-weight="600" fill="#212121">Численные метрики</text><text x="790" y="100" fill="#616161">Кейсов всего:</text><text x="1010" y="100" font-weight="600" fill="#212121">25</text><text x="790" y="122" fill="#616161">Обе системы работают:</text><text x="1010" y="122" font-weight="600" fill="#212121">15</text><text x="790" y="144" fill="#616161">Только multiop:</text><text x="1010" y="144" font-weight="600" fill="#212121">10</text><text x="790" y="174" font-weight="600" fill="#424242">На общих ${both.length} кейсах:</text><text x="790" y="196" fill="#616161">Совпадение зоны:</text><text x="1010" y="196" font-weight="600" fill="#212121">15/15 (100%)</text><text x="790" y="218" fill="#616161">Полное совпадение балла (Δ=0):</text><text x="1010" y="218" font-weight="600" fill="#212121">7/15</text><text x="790" y="240" fill="#616161">Среднее |Δ|:</text><text x="1010" y="240" font-weight="600" fill="#212121">2.42 балла</text><text x="790" y="262" fill="#616161">Медианное |Δ|:</text><text x="1010" y="262" font-weight="600" fill="#212121">0.08 балла</text><text x="790" y="284" fill="#616161">Максимальное |Δ|:</text><text x="1010" y="284" font-weight="600" fill="#212121">18.68 балла</text><text x="790" y="314" font-weight="600" fill="#424242">Активированных правил:</text><text x="790" y="336" fill="#616161">Fuzzy (среднее):</text><text x="1010" y="336" font-weight="600" fill="#212121">4.4</text><text x="790" y="358" fill="#616161">Multiop (среднее):</text><text x="1010" y="358" font-weight="600" fill="#212121">47.6</text></svg>